<svg width="347" height="347" viewBox="0 0 347 347" fill="none" xmlns="http://www.w3.org/2000/svg">
<path fill-rule="evenodd" clip-rule="evenodd" d="M98.75 74H247.25C260.912 74 272 85.088 272 98.75V247.25C272 260.912 260.912 272 247.25 272H98.75C85.088 272 74 260.912 74 247.25V98.75C74 85.088 85.088 74 98.75 74ZM177.95 121.025L177.95 121.025H215.075V83.9L177.95 83.8999V121.025ZM83.9769 97.2351C83.926 97.7333 83.9 98.2387 83.9 98.75V121.025H168.05L168.05 121.025V83.8999H98.75C91.8413 83.8999 86.0109 88.6559 84.3645 95.0622C84.1831 95.7678 84.0526 96.4935 83.9769 97.2351ZM83.9 130.925L83.9 130.924H215.075L215.075 130.925L215.075 168.049L215.075 168.05H83.9V130.925ZM168.05 177.951L168.05 177.95H130.925V215.075L130.925 215.076H168.05V177.951ZM83.9 247.25C83.9 248.273 84.0042 249.272 84.2025 250.237C85.5909 256.994 91.5916 262.1 98.75 262.1L121.025 262.1L121.025 224.975H83.9V247.25ZM121.025 177.951V215.076H83.9L83.9 215.075V177.95H121.025L121.025 177.951ZM130.925 262.1H247.25C255.431 262.1 262.1 255.431 262.1 247.25V224.975H130.925V262.1ZM262.1 215.075V177.95H177.95L177.95 177.951V215.076H262.1L262.1 215.075ZM224.975 168.049V168.05H262.1V130.925H262.1V130.924H224.975V168.049H224.975ZM260.93 92.9783C258.671 87.6513 253.386 83.9 247.25 83.9C247.25 83.9 247.25 83.8999 247.25 83.8999H224.975V121.025L224.975 121.025H262.1V98.75C262.1 96.7048 261.683 94.754 260.93 92.9783Z" fill="black"/>
</svg>
